<?xml version="1.0" encoding="UTF-8"?>
<svg id="svg12" xmlns="http://www.w3.org/2000/svg" xmlns:svg="http://www.w3.org/2000/svg" xmlns:sodipodi="http://sodipodi.sourceforge.net/DTD/sodipodi-0.dtd" xmlns:inkscape="http://www.inkscape.org/namespaces/inkscape" version="1.1" viewBox="0 0 109.9 30">
  <defs>
    <style>
      .cls-1 {
        fill: #8d94ed;
      }

      .cls-1, .cls-2, .cls-3 {
        stroke-width: 0px;
      }

      .cls-4 {
        fill: #089ede;
      }

      .cls-4, .cls-5, .cls-6, .cls-7 {
        stroke: #371f80;
        stroke-linecap: round;
        stroke-linejoin: round;
        stroke-width: .8px;
      }

      .cls-5 {
        fill: #fcce5d;
      }

      .cls-6 {
        fill: none;
      }

      .cls-2 {
        fill: #000;
      }

      .cls-3 {
        fill: #737ad9;
      }

      .cls-7 {
        fill: #e8eafd;
      }
    </style>
  </defs>
  <sodipodi:namedview id="namedview14" bordercolor="#000000" borderopacity="0.25" inkscape:deskcolor="#d1d1d1" inkscape:pagecheckerboard="0" inkscape:pageopacity="0.0" inkscape:showpageshadow="2" pagecolor="#ffffff"/>
  <g>
    <path class="cls-1" d="M28.5,14.2c-1.2-2.2-3.4-2.9-4-3.1-.8-.9-1.9-2.1-3.7-3.1-5.5-3-13.3-1.4-16.5,2.7-.5.6-1.5,2-1.7,3.9-.2,2.2.8,3.9,1.2,4.5,0,.2-.5,1.6.3,2.8.8,1.3,2.7,1.7,4.5.9,1.2,1.8,3.3,2.8,5.4,2.5,2.7-.3,4-2.5,4.2-2.8.4.2,1.3.7,2.6,1l2.1,3.5h1.3l-.9-3.4c.1,0,.2,0,.3,0,.6-.1,2.1-.4,3.4-1.6,1.9-1.8,3-5.1,1.5-7.8Z"/>
    <path class="cls-3" d="M28.5,14.2c-1.2-2.2-3.4-2.9-4-3.1-.3-.4-.7-.8-1.2-1.3.3.5.5,1.1.6,1.7.3,1.4,0,2.6-.3,3.4.3,0,1-.4,1.5-1.2.4-.6.5-1.3.5-1.6.5.5,1.3,1.5,1.6,3,.5,2.6-1,5.8-3.9,6.7-2.8.8-5.2-1.1-5.4-1.3-1.3,2.2-3.9,3.3-6.2,2.6-1.8-.5-3.3-2.1-3.7-4.1-.2.3-.4.7-.5,1.1-.2.8-.1,1.5,0,1.9-1.5-.4-2.3-1.7-2.1-2.8.1-.8.8-1.5,1.7-1.8-.1-.1-.6-.5-1.2-.5-.7,0-1.2.2-1.3.3-.4-.9-.8-2.4-.6-4.2.2-1.3.6-2.4,1.2-3.3-.3.3-.5.5-.8.8-.5.6-1.5,2-1.7,3.9-.2,2.2.8,3.9,1.2,4.5,0,.2-.5,1.6.3,2.8.8,1.3,2.7,1.7,4.5.9,1.2,1.8,3.3,2.8,5.4,2.5,2.7-.3,4-2.5,4.2-2.8.4.2,1.3.7,2.6,1l2.1,3.5h1.3l-.9-3.4c.1,0,.2,0,.3,0,.6-.1,2.1-.4,3.4-1.6,1.9-1.8,3-5.1,1.5-7.8Z"/>
    <path class="cls-6" d="M28.5,14.2c-1.2-2.2-3.4-2.9-4-3.1-.8-.9-1.9-2.1-3.7-3.1-5.5-3-13.3-1.4-16.5,2.7-.5.6-1.5,2-1.7,3.9-.2,2.2.8,3.9,1.2,4.5,0,.2-.5,1.6.3,2.8.8,1.3,2.7,1.7,4.5.9,1.2,1.8,3.3,2.8,5.4,2.5,2.7-.3,4-2.5,4.2-2.8.4.2,1.3.7,2.6,1l2.1,3.5h1.3l-.9-3.4c.1,0,.2,0,.3,0,.6-.1,2.1-.4,3.4-1.6,1.9-1.8,3-5.1,1.5-7.8Z"/>
    <path class="cls-5" d="M11.5,12.4c0,.5-.4.8-.8.8s-.8-.4-.8-.8.4-.8.8-.8.8.4.8.8Z"/>
    <path class="cls-5" d="M23.2,17c0,.5-.4.8-.8.8s-.8-.4-.8-.8.4-.8.8-.8.8.4.8.8Z"/>
    <path class="cls-7" d="M15,13.7c0,.5-.4.8-.8.8s-.8-.4-.8-.8.4-.8.8-.8.8.4.8.8Z"/>
    <path class="cls-7" d="M21.9,12.4c0,.5-.4.8-.8.8s-.8-.4-.8-.8.4-.8.8-.8.8.4.8.8Z"/>
    <path class="cls-7" d="M21.3,20c0,.5-.4.8-.8.8s-.8-.4-.8-.8.4-.8.8-.8.8.4.8.8Z"/>
    <path class="cls-4" d="M18.4,10.3c0,.5-.4.8-.8.8s-.8-.4-.8-.8.4-.8.8-.8.8.4.8.8Z"/>
    <path class="cls-4" d="M8.1,14.7c0,.5-.4.8-.8.8s-.8-.4-.8-.8.4-.8.8-.8.8.4.8.8Z"/>
    <line class="cls-6" x1="14.1" y1="14.5" x2="14.1" y2="25.4"/>
    <polyline class="cls-6" points="10.7 13.2 10.7 17.3 14.1 20.7"/>
    <polyline class="cls-6" points="17.6 11.1 17.6 19.8 14.1 23.2"/>
    <path class="cls-6" d="M3.8,19.1c0-.2.3-.7.8-1.1.3-.2.7-.3.9-.4"/>
    <path class="cls-6" d="M8.1,21.1c0,.2,0,.6.1.9.1.4.3.7.4.9"/>
    <path class="cls-6" d="M24.5,11.1c.1.2.3.6.3,1.1,0,.7-.2,1.2-.3,1.4"/>
    <line class="cls-6" x1="23.2" y1="17" x2="29.2" y2="17"/>
    <polyline class="cls-6" points="21.3 20 24.9 20 27.9 17"/>
    <line class="cls-6" x1="7.2" y1="13.9" x2="7.2" y2="8.3"/>
    <line class="cls-6" x1="21.1" y1="11.5" x2="21.1" y2="8.1"/>
  </g>
  <g>
    <path class="cls-2" d="M33.7,17.6c0-.2.2-.2.3-.1.7.4,1.6.7,2.2.8.5,0,.8-.2.8-.6,0-.9-4.5-.9-4.5-4.4s1.6-3.6,4-3.6,2.6.5,3.6,1.2c.1,0,.2.2.1.3l-1,2.3c0,.2-.2.2-.3.1-.8-.4-1.7-.8-2.3-.8-.5,0-.8.2-.8.6,0,.9,4.5.9,4.5,4.4s-1.6,3.6-4.1,3.6-2.8-.4-3.6-1.1c-.1,0-.2-.2-.1-.3l1-2.3Z"/>
    <path class="cls-2" d="M49.4,12.2c.1,0,.2.1.2.2v8.3c0,.1-.1.2-.2.2h-1.8c-.1,0-.2-.1-.3-.2l-.2-.6c-.6.6-1.5,1.1-2.6,1.1-2.1,0-3.3-1.3-3.3-3.5v-5.3c0-.1.1-.2.2-.2h2.8c.1,0,.2.1.2.2v4.9c0,.5.3.9.8.9s1-.5,1-.5v-5.3c0-.1.1-.2.2-.2h2.8Z"/>
    <path class="cls-2" d="M53.3,12.9c.5-.6,1.4-.9,2.5-.9s2,.5,2.4,1.3c.6-.8,1.6-1.3,2.8-1.3,2.1,0,3.4,1.3,3.4,3.5v5.3c0,.1,0,.2-.2.2h-2.8c-.1,0-.2,0-.2-.2v-4.8c0-.6-.3-1-.8-1-.9,0-1.1.9-1,.9v4.9c0,.1,0,.2-.2.2h-2.8c-.1,0-.2,0-.2-.2v-4.8c0-.7-.3-1-.8-1-.9,0-1.1.9-1.1.9v4.9c0,.1,0,.2-.2.2h-2.8c-.1,0-.2,0-.2-.2v-8.4c0-.1,0-.2.2-.2h1.8c.1,0,.2,0,.3.2l.2.5Z"/>
    <path class="cls-2" d="M67.9,12.9c.5-.6,1.4-.9,2.5-.9s2,.5,2.4,1.3c.6-.8,1.6-1.3,2.8-1.3,2.1,0,3.4,1.3,3.4,3.5v5.3c0,.1,0,.2-.2.2h-2.8c-.1,0-.2,0-.2-.2v-4.8c0-.6-.3-1-.8-1-.9,0-1.1.9-1,.9v4.9c0,.1,0,.2-.2.2h-2.8c-.1,0-.2,0-.2-.2v-4.8c0-.7-.3-1-.8-1-.9,0-1.1.9-1.1.9v4.9c0,.1,0,.2-.2.2h-2.8c-.1,0-.2,0-.2-.2v-8.4c0-.1,0-.2.2-.2h1.8c.1,0,.2,0,.3.2l.2.5Z"/>
    <path class="cls-1" d="M90.5,20.8c0,0,0,.2-.1.2h-3.2c-.1,0-.3,0-.3-.2l-.5-1.7h-3l-.5,1.7c0,.1-.2.2-.3.2h-3.2c-.1,0-.2-.1-.1-.2l3.6-10.6c0,0,.2-.2.4-.2h3.3c.2,0,.3.1.4.2l3.6,10.6ZM84.8,13.8l-.9,3h1.7l-.9-3Z"/>
    <path class="cls-1" d="M93.8,10c.1,0,.2.1.2.2v10.6c0,.1,0,.2-.2.2h-2.8c-.1,0-.2-.1-.2-.2v-10.6c0-.1.1-.2.2-.2h2.8Z"/>
    <path class="cls-2" d="M100.3,12.2c.1,0,.2,0,.2.2v2.1c0,.1,0,.2-.2.2h-.4c-.6,0-1.2.3-1.4.7v5.4c0,.1-.1.2-.2.2h-2.8c-.1,0-.2-.1-.2-.2v-8.3c0-.1.1-.2.2-.2h1.8c.1,0,.2.1.3.2l.2.7c.5-.6,1.3-1,2.1-1h.4Z"/>
    <path class="cls-2" d="M108.7,12.2c.2,0,.4.2.2.4l-3.1,5.3h2.8c.1,0,.2,0,.2.2v2.6c0,.1,0,.2-.2.2h-7.2c-.2,0-.4-.2-.2-.4l3.1-5.3h-2.5c-.1,0-.2-.1-.2-.2v-2.6c0-.1.1-.2.2-.2h6.8Z"/>
  </g>
</svg>